<?xml version="1.0" encoding="UTF-8"?>
<svg id="Camada_1" data-name="Camada 1" xmlns="http://www.w3.org/2000/svg" viewBox="0 0 1000 1000">
  <defs>
    <style>
      .cls-1 {
        font-family: ArticulatCF-Medium, 'Articulat CF';
        font-size: 10.93px;
        font-weight: 500;
      }

      .cls-1, .cls-2 {
        fill: #000;
      }

      .cls-3 {
        fill: none;
        stroke: #000;
        stroke-miterlimit: 10;
        stroke-width: .91px;
      }

      .cls-2 {
        stroke-width: 0px;
      }
    </style>
  </defs>
  <path class="cls-2" d="M344.41,420.83h15.3c.98,0,1.89.5,2.41,1.32l59.39,93.26h.53v-91.72c0-1.58,1.28-2.86,2.86-2.86h12.6c1.58,0,2.86,1.28,2.86,2.86v117.57c0,1.58-1.28,2.86-2.86,2.86h-16c-.98,0-1.89-.5-2.41-1.32l-58.87-92.38h-.35v90.84c0,1.58-1.28,2.86-2.86,2.86h-12.6c-1.58,0-2.86-1.28-2.86-2.86v-117.57c0-1.58,1.28-2.86,2.86-2.86Z"/>
  <path class="cls-2" d="M448.72,518.41c0-17.61,12.86-24.83,29.24-26.77l22.72-2.64c8.45-1.06,11.27-2.64,11.27-5.46v-2.47c0-14.62-7.57-18.49-20.43-18.49s-20.61,3.87-20.61,15.5v2.11h-14.23c-1.58,0-2.86-1.28-2.86-2.86v-.84c0-18.32,12.86-27.48,38.04-27.48s37.87,9.69,37.87,31.88v58.61c0,1.58-1.28,2.86-2.86,2.86h-11.02c-1.58,0-2.86-1.28-2.86-2.86v-11.94h-.7c-1.76,3.52-10.39,16.56-32.94,16.56-17.08,0-30.65-7.57-30.65-25.72ZM483.77,530.21c19.37,0,28.18-11.98,28.18-21.84v-4.74c0-1.96-1.92-3.32-3.78-2.7-1.85.62-4.57,1.14-8.73,1.63l-17.26,2.29c-11.45,1.41-15.68,5.46-15.68,12.68,0,8.63,6.17,12.68,17.26,12.68Z"/>
  <path class="cls-2" d="M580.37,465.75c-14.44,0-24.48,8.98-24.48,25.36v50.16c0,1.58-1.28,2.86-2.86,2.86h-12.07c-1.58,0-2.86-1.28-2.86-2.86v-85.87c0-1.58,1.28-2.86,2.86-2.86h12.07c1.58,0,2.86,1.28,2.86,2.86v15.46h.53c1.59-6.87,10.39-20.08,30.82-20.08,17.97,0,32.41,10.39,32.41,36.28v54.21c0,1.58-1.28,2.86-2.86,2.86h-12.07c-1.58,0-2.86-1.28-2.86-2.86v-50.16c0-16.38-7.05-25.36-21.49-25.36Z"/>
  <path class="cls-2" d="M628.01,496.57c0-32.76,21.84-47.55,44.56-47.55s44.74,14.79,44.74,47.55-21.84,47.56-44.74,47.56-44.56-14.8-44.56-47.56ZM672.57,529.15c14.79,0,27.83-10.04,27.83-32.58s-13.03-32.58-27.83-32.58-27.65,10.04-27.65,32.58,12.86,32.58,27.65,32.58Z"/>
  <path class="cls-2" d="M764.23,418.01h8.24c1.58,0,2.86,1.28,2.86,2.86v8.2c0,1.58-1.28,2.86-2.86,2.86h-3.83c-9.16,0-12.51,3.87-12.51,12.86v4.89c0,1.58,1.28,2.86,2.86,2.86h12.95c1.58,0,2.86,1.28,2.86,2.86v8.2c0,1.58-1.28,2.86-2.86,2.86h-12.95c-1.58,0-2.86,1.28-2.86,2.86v71.96c0,1.58-1.28,2.86-2.86,2.86h-12.07c-1.58,0-2.86-1.28-2.86-2.86v-71.96c0-1.58-1.28-2.86-2.86-2.86h-6.96c-1.58,0-2.86-1.28-2.86-2.86v-8.2c0-1.58,1.28-2.86,2.86-2.86h6.96c1.58,0,2.86-1.28,2.86-2.86v-7.36c0-17.97,10.74-24.31,25.89-24.31Z"/>
  <path class="cls-2" d="M816.32,553.73c1.94-4.93,1.94-7.93.35-12.15l-32.78-82.03c-.75-1.88.63-3.92,2.65-3.92h12.12c1.19,0,2.26.74,2.68,1.85l22.88,60.96c.93,2.47,4.42,2.47,5.35,0l23.04-60.98c.42-1.11,1.48-1.85,2.67-1.85h12.12c2.02,0,3.4,2.04,2.65,3.92l-37.18,92.95c-9.09,22.55-19.79,30.79-38.55,29.33-1.5-.12-2.67-1.36-2.67-2.86v-9.56c0-1.68,1.44-2.96,3.11-2.84,12.88.91,18.28-4.82,21.55-12.84Z"/>
  <g>
    <path class="cls-2" d="M325.36,421.56h-42.2c-1.15,0-2.09.95-2.09,2.12v56.68c0,1.17.93,2.12,2.09,2.12h42.2c1.15,0,2.08-.95,2.08-2.12v-56.68c0-1.17-.93-2.12-2.08-2.12Z"/>
    <path class="cls-2" d="M153.35,482.64h-41.51c-.81.3-1.46.92-1.84,1.72v58.41c.52,1.13,1.63,1.91,2.91,1.91h39.36c1.45,0,2.68-1,3.09-2.39v-57.46c-.3-1.03-1.06-1.84-2.02-2.2Z"/>
    <path class="cls-2" d="M279.18,482.64h-18.03l-.1-.1h0c-.48-.1-.93-.34-1.28-.7l-25.48-26.06-34.38-34.38h-42.75c-1.04.31-1.8,1.3-1.8,2.46v56.16c0,1.42,1.12,2.57,2.51,2.57h15.52c.17,0,.33.02.49.05h.73l15.37,15.86,44.73,45.75c.27.27.59.48.94.6h43.89c.73-.27,1.3-.86,1.54-1.61v-58.88c-.28-.87-1-1.53-1.89-1.71Z"/>
  </g>
  <circle class="cls-3" cx="878.62" cy="533.56" r="11.38"/>
  <text class="cls-1" transform="translate(870.86 536.72)"><tspan x="0" y="0">TM</tspan></text>
</svg>